# xmcd CD database file
#
# Track frame offsets:
#	225
#	9989
#	24135
#	37429
#	49001
#	59309
#	72836
#	89862
#	99977
#	119962
#	131801
#	145293
#	158801
#	168977
#	182232
#	193472
#
# Disc length: 2733 seconds
#
# Revision: 3
# Processed by: cddbd v1.5.2PL0 Copyright (c) Steve Scherf et al.
# Submitted via: CDex 1.51
#
DISCID=f10aaa10
DTITLE=Various Artist - Trucker and Country Christmas Fete [CD 1)
DYEAR=2004
DGENRE=Country
TTITLE0=Dave Dudley - Jingle Bells
TTITLE1=Bud Martin - Save Some Champagne For Santa Claus
TTITLE2=Dave Dudley - Old Time Merry Christmas
TTITLE3=Jonny Hill - Weiße Weihnacht in der Heimat
TTITLE4=Dave Dudley - Six Tons Of Toys
TTITLE5=Freddy Quinn - White Christmas
TTITLE6=Ty Hunter - Christmas Without You
TTITLE7=Bobby Bare - Jesus Is The Only One That Loves us
TTITLE8=Freddy Quinn - Süßer die Glocken nie klingen
TTITLE9=Bud Martin - The First Flake To Fall
TTITLE10=Dave Dudley - Silent Night
TTITLE11=Sarah Lee and The Santa Claus Singers - When Christmas Comes Home
TTITLE12=Dave Dudley - Oh, Come All Ye Faithful
TTITLE13=Ty Hunter - Oh, My God
TTITLE14=Dave Dudley - I Wish You Were Here
TTITLE15=Freddy Quinn - Oh, du fröhliche
EXTD=YEAR: 2004
EXTT0=
EXTT1=
EXTT2=
EXTT3=
EXTT4=
EXTT5=
EXTT6=
EXTT7=
EXTT8=
EXTT9=
EXTT10=
EXTT11=
EXTT12=
EXTT13=
EXTT14=
EXTT15=
PLAYORDER=
